Coordinates
version=1
nRows=4
nColumns=63
inDegrees=yes

Units are S.I. units (second, meters, Newtons, ...)
If the header above contains a line with 'inDegrees', this indicates whether rotational values are in degrees (yes) or radians (no).

endheader
time	pelvis_tilt	pelvis_list	pelvis_rotation	pelvis_tx	pelvis_ty	pelvis_tz	hip_flexion_r	hip_adduction_r	hip_rotation_r	knee_angle_r	knee_angle_r_beta	ankle_angle_r	subtalar_angle_r	mtp_angle_r	hip_flexion_l	hip_adduction_l	hip_rotation_l	knee_angle_l	knee_angle_l_beta	ankle_angle_l	subtalar_angle_l	mtp_angle_l	L5_S1_Flex_Ext	L5_S1_Lat_Bending	L5_S1_axial_rotation	L4_L5_Flex_Ext	L4_L5_Lat_Bending	L4_L5_axial_rotation	L3_L4_Flex_Ext	L3_L4_Lat_Bending	L3_L4_axial_rotation	L2_L3_Flex_Ext	L2_L3_Lat_Bending	L2_L3_axial_rotation	L1_L2_Flex_Ext	L1_L2_Lat_Bending	L1_L2_axial_rotation	L1_T12_Flex_Ext	L1_T12_Lat_Bending	L1_T12_axial_rotation	Abs_r3	Abs_r2	Abs_r1	Abs_t1	Abs_t2	neck_flexion	neck_bending	neck_rotation	arm_flex_r	arm_add_r	arm_rot_r	elbow_flex_r	pro_sup_r	wrist_flex_r	wrist_dev_r	arm_flex_l	arm_add_l	arm_rot_l	elbow_flex_l	pro_sup_l	wrist_flex_l	wrist_dev_l
      3.89655172	     -6.73405045	      7.72668729	     97.09083996	      0.12722214	      0.79641859	      0.74441724	     -8.97324106	     -4.89625537	    -12.18163410	     11.93770275	      0.20835222	     36.83753136	      1.68496634	      0.00000000	    -10.69462125	      4.50568743	     17.48828462	      5.07226977	      0.08852781	     28.86724190	     -9.02366908	      0.00000000	      0.16605056	      1.33184022	      1.42849479	      0.30837250	      1.77134749	      1.51777572	      0.27280447	      3.23823630	      1.51777572	      0.18977919	      3.23823630	      1.24993294	      0.15419455	      2.71588857	      1.16065202	      0.09488129	      2.06302050	      1.07137110	      1.18608255	     15.06604290	      7.94485949	      0.00000000	      0.00000000	     24.58690413	     -1.10257421	     38.11264957	     16.18667147	    -11.64486482	    165.35059112	      0.56824076	     28.85438822	      0.79193675	     -1.60766068	     45.08865811	    -44.20749837	    -19.14433730	    145.21224255	     88.02261753	      3.08285731	     11.88578115
      3.91379310	     -6.97646054	      7.81781019	     97.09392971	      0.12760321	      0.79686626	      0.74444311	     -9.01778823	     -5.14865152	    -12.30679010	     12.07718037	      0.21078656	     36.97384564	      1.93670879	      0.00000000	    -10.90986464	      4.71815637	     17.69758716	      4.87721732	      0.08512350	     28.46648952	     -9.52553376	      0.00000000	      0.16559879	      1.29360874	      1.44797135	      0.30753352	      1.72049962	      1.53846956	      0.27206226	      3.14528029	      1.53846956	      0.18926286	      3.14528029	      1.26697493	      0.15377504	      2.63792694	      1.17647672	      0.09462315	      2.00379994	      1.08597852	      1.18285561	     14.63356078	      8.05318228	      0.00000000	      0.00000000	     24.39844374	     -0.51101293	     37.44386997	     16.20526623	    -11.32760893	    165.68434510	      0.57462289	     29.33573490	      1.40362962	     -1.78315503	     46.06925790	    -44.70217566	    -17.84951207	    144.55095133	     87.82965469	      2.80553511	     11.69891194
      3.93103448	     -7.24977181	      7.88244598	     97.24212800	      0.12805382	      0.79742543	      0.74497572	     -9.07422597	     -5.41126745	    -12.72226310	     12.16527940	      0.21232418	     37.02559420	      2.36322260	      0.00000000	    -10.97134559	      4.95641610	     18.06765770	      4.87614055	      0.08510471	     28.08213352	    -10.07573182	      0.00000000	      0.16576521	      1.23928396	      1.52561795	      0.30784257	      1.64824767	      1.62096907	      0.27233566	      3.01319502	      1.62096907	      0.18945306	      3.01319502	      1.33491571	      0.15392957	      2.52714785	      1.23956459	      0.09471824	      1.91965085	      1.14421346	      1.18404431	     14.01902800	      8.48502936	      0.00000000	      0.00000000	     24.50032461	     -0.23659372	     35.84037757	     16.10924946	    -11.03470747	    165.48801540	      0.55558712	     29.62388279	      2.14594015	     -1.73525760	     48.13224559	    -44.45652100	    -15.54449698	    143.71348283	     87.81032503	      2.29930955	     12.38069582
      3.94827586	     -7.63787400	      7.78950667	     97.55432542	      0.12851015	      0.79794738	      0.74559202	     -9.05654179	     -5.76789620	    -13.25317248	     12.16947859	      0.21239747	     37.01526110	      2.68881344	      0.00000000	    -10.84612163	      5.28554137	     18.25413650	      4.91783860	      0.08583248	     27.75172957	    -10.09360948	      0.00000000	      0.17427526	      1.15947341	      1.60865725	      0.32364658	      1.54209963	      1.70919833	      0.28631682	      2.81914364	      1.70919833	      0.19917919	      2.81914364	      1.40757509	      0.16183200	      2.36439817	      1.30703402	      0.09958088	      1.79602431	      1.20649294	      1.24483072	     13.11619506	      8.94686903	      0.00000000	      0.00000000	     24.76958609	      0.40481534	     34.36645027	     15.97409232	    -10.68956045	    164.98617364	      0.52091350	     29.80504539	      2.71095306	     -1.67436972	     50.77083836	    -43.60409549	    -13.43162298	    142.97324263	     87.79604687	      2.72865061	     14.10694866
